# xmcd CD database file
#
# Track frame offsets:
#	150
#	12075
#	24805
#	35305
#	47118
#	57888
#	76870
#	87183
#	97315
#	108490
#	130990
#
# Disc length: 1968 seconds
#
# Revision: 0
# Processed by: cddbd v1.5.2PL0 Copyright (c) Steve Scherf et al.
# Submitted via: CDex 1.70beta2
#
DISCID=7f07ae0b
DTITLE=David Bristow - Better The Devil You Know
DYEAR=2007
DGENRE=Blues
TTITLE0=Can't Run From Your Troubles
TTITLE1=Devil On My Shoulder
TTITLE2=Suitcase Blues
TTITLE3=Trouble Ain't Nothing
TTITLE4=Mr. Blues Comes Calling
TTITLE5=Dissatisfied Blues
TTITLE6=Old Friend Blues
TTITLE7=Standing On The Corner
TTITLE8=Muddy Water
TTITLE9=(untitled)
TTITLE10=Ain't No Telling
EXTD=YEAR: 2007
EXTT0=
EXTT1=
EXTT2=
EXTT3=
EXTT4=
EXTT5=
EXTT6=
EXTT7=
EXTT8=
EXTT9=
EXTT10=
PLAYORDER=
